# xmcd
#
# Track frame offsets: 
#        150
#        10847
#        26925
#        41482
#        53265
#        63290
#        74697
#        86507
#        95530
#        110282
#        118587
#        130160
#        145640
#        158762
#
# Disc length: 2317 seconds
#
# Revision: 3
# Processed by: cddbd v1.5.1PL0 Copyright (c) Steve Scherf et al.
# Submitted via: ExactAudioCopy v0.95b3
#
DISCID=b2090b0e
DTITLE=Rory Block - When A Woman Gets The Blues
DYEAR=1995
DGENRE=Blues
TTITLE0=Preaching Blues
TTITLE1=Peavine Blues
TTITLE2=Joliet Bound
TTITLE3=Tallahatchie Blues
TTITLE4=I Let My Daddy Do That
TTITLE5=Be Ready When He Comes
TTITLE6=Hellhound On My Trail
TTITLE7=Sweet Sunny South
TTITLE8=Rowdy Blues
TTITLE9=Tain't Long For Day
TTITLE10=On The Wall
TTITLE11=Cypress Grove
TTITLE12=Take My Heart
TTITLE13=Railroadin' Some
EXTD=
EXTT0=Son House
EXTT1=Charlie Patton
EXTT2=Kansas Joe McCoy
EXTT3=Mattie Delaney
EXTT4=Hattie Hart
EXTT5=Nehemiah "Skip" James
EXTT6=Robert Johnson
EXTT7=Traditional
EXTT8=Kid Bailey
EXTT9=Blind Willie McTell
EXTT10=Louise Johnson
EXTT11=Nehemiah "Skip" James
EXTT12=Rory Block
EXTT13=Henry Thomas
PLAYORDER=
